# xmcd
#
# Track frame offsets: 
#        150
#        23403
#        43436
#        63914
#        92868
#        120445
#        150446
#        174218
#        189472
#        210390
#        232529
#        253504
#        270792
#        290537
#        315809
#        341204
#
# Disc length: 4718 seconds
#
# Revision: 1
# Processed by: cddbd v1.5.2PL0 Copyright (c) Steve Scherf et al.
# Submitted via: ExactAudioCopy v1.0b3
#
DISCID=c2126c10
DTITLE=Various Artist - Sundance - Stunt Records Compilation Vol. 14
DYEAR=2006
DGENRE=Jazz
TTITLE0=Silvana Malta - No Mais, Geraes
TTITLE1=Bob Rockwell - La Rosita
TTITLE2=Malene Mortensen - I've Got A Date With A Dream
TTITLE3=Michael Blake - Lemmy Caution
TTITLE4=Kasper Villaume - Captain Kirkland
TTITLE5=Stefano Bollani and Jesper Bodilsen and Morten Lund - Glemmer Du
TTITLE6=Sam Rivers and Ben Street and Kresten Osgood - What A Difference A
TTITLE6=Day Made
TTITLE7=Tania Maria and N.H.O.P. - Bim Bom
TTITLE8=Svante Thuresson and Katrine Madsen - Let's Fall In Love
TTITLE9=Jens Winther - Ubatuba
TTITLE10=Jacob Christoffersen - Facing The Sun
TTITLE11=Jorgen Emborg - You Will Find Peace
TTITLE12=Hans Ulrik and Steve Swallow and Jonas Johansen - Mosse
TTITLE13=Once Around The Park - Anthem 
TTITLE14=Jazz Kamikaze - Vill Du Bli Munk
TTITLE15=Trio Neumann - Swe-Danes Shuffle
EXTD=YEAR: 2006
EXTT0=
EXTT1=
EXTT2=
EXTT3=
EXTT4=
EXTT5=
EXTT6=
EXTT7=
EXTT8=
EXTT9=
EXTT10=
EXTT11=
EXTT12=
EXTT13=
EXTT14=
EXTT15=
PLAYORDER=
